# xmcd
#
# Track frame offsets:
#	150
#	15901
#	35335
#	52361
#	73198
#	90425
#	111154
#	128491
#	146838
#	161952
#	178902
#	194976
#	226572
#
# Disc length: 4044 seconds
#
# Revision: 0
# Processed by: cddbd v1.5.2PL0 Copyright (c) Steve Scherf et al.
# Submitted via: audiograbber 1.83.01
#
DISCID=b90fca0d
DTITLE=Various Artist - Young Female Country
DYEAR=1900
DGENRE=Country
TTITLE0=Carrie Underwood - I'll Stand By You
TTITLE1=Carrie Underwood - Inside Your Heaven
TTITLE2=Carrie Underwood - Jesus Take The Wheel
TTITLE3=Carrie Underwood - Just A Dream
TTITLE4=Carrie Underwood - Some Hearts
TTITLE5=Carrie Underwood - Wasted
TTITLE6=Carrie Underwood - We're Young And Beautiful
TTITLE7=Kellie Pickler - Best Days Of Your Life
TTITLE8=Kellie Pickler - Don't You Know Your Beautiful
TTITLE9=Kellie Pickler - One Of The Guys
TTITLE10=Kellie Pickler - Rocks Instead Of Rice
TTITLE11=Kellie Pickler - Wild Ponies
TTITLE12=Data - Data Track
EXTD=
EXTT0=
EXTT1=
EXTT2=
EXTT3=
EXTT4=
EXTT5=
EXTT6=
EXTT7=
EXTT8=
EXTT9=
EXTT10=
EXTT11=
EXTT12=Data
PLAYORDER=
